<?xml version="1.0" encoding="UTF-8" standalone="no"?>
<!-- Created with Inkscape (http://www.inkscape.org/) -->

<svg
   width="7mm"
   height="7mm"
   viewBox="0 0 7 7"
   version="1.1"
   id="svg5"
   inkscape:version="1.2.2 (b0a8486541, 2022-12-01)"
   sodipodi:docname="save-pdf.svg"
   inkscape:export-filename="save-pdf.png"
   inkscape:export-xdpi="3.23"
   inkscape:export-ydpi="3.23"
   xmlns:inkscape="http://www.inkscape.org/namespaces/inkscape"
   xmlns:sodipodi="http://sodipodi.sourceforge.net/DTD/sodipodi-0.dtd"
   xmlns="http://www.w3.org/2000/svg"
   xmlns:svg="http://www.w3.org/2000/svg">
  <sodipodi:namedview
     id="namedview7"
     pagecolor="#ffffff"
     bordercolor="#666666"
     borderopacity="1.0"
     inkscape:showpageshadow="2"
     inkscape:pageopacity="0.0"
     inkscape:pagecheckerboard="0"
     inkscape:deskcolor="#d1d1d1"
     inkscape:document-units="mm"
     showgrid="true"
     inkscape:zoom="29.276992"
     inkscape:cx="21.843091"
     inkscape:cy="11.886467"
     inkscape:window-width="2560"
     inkscape:window-height="1371"
     inkscape:window-x="0"
     inkscape:window-y="0"
     inkscape:window-maximized="1"
     inkscape:current-layer="g3505">
    <inkscape:grid
       type="xygrid"
       id="grid1225" />
  </sodipodi:namedview>
  <defs
     id="defs2" />
  <g
     inkscape:label="Ebene 1"
     inkscape:groupmode="layer"
     id="layer1">
    <g
       id="g3505"
       transform="matrix(1.358001,0,0,1.358001,-1.2530035,-0.45234879)">
      <path
         style="fill:#000000;fill-opacity:1;stroke:none;stroke-width:0.264583px;stroke-linecap:butt;stroke-linejoin:miter;stroke-opacity:1"
         d="M 2.70625,3.175 V 3.96875 H 1.6479166 L 3.5,5.2916667 5.3520833,3.96875 H 4.2937499 V 3.175 Z"
         id="path2755" />
      <g
         aria-label="PDF"
         id="text3578"
         style="font-size:2.59777px;line-height:1.25;font-family:'DejaVu Serif';-inkscape-font-specification:'DejaVu Serif';stroke-width:0.194833">
        <path
           d="m 1.3633351,0.58406028 q 0.038966,-0.005196 0.090922,-0.0103911 0.054553,-0.005196 0.1117041,-0.007793 0.059749,-0.005196 0.1168997,-0.007793 0.059749,-0.002598 0.1143018,-0.002598 0.1428774,0 0.2701681,0.0285755 0.1298885,0.0285755 0.226006,0.0987153 0.098715,0.0701398 0.1558662,0.18703944 0.057151,0.11430187 0.057151,0.28835242 0,0.1818439 -0.062346,0.3039391 -0.059749,0.1194974 -0.1610618,0.192235 -0.098715,0.072738 -0.226006,0.1039108 -0.1272907,0.028575 -0.259777,0.028575 -0.049358,0 -0.088324,0 -0.036369,-0.0026 -0.080531,-0.00779 v 0.6754202 q -0.062347,0.00779 -0.1324863,0.00779 -0.031173,0 -0.067542,-0.0026 -0.033771,0 -0.064944,-0.0052 z M 1.6283076,1.5478329 q 0.041564,0.0052 0.072737,0.00779 0.031173,0.0026 0.090922,0.0026 0.080531,0 0.158464,-0.015587 0.080531,-0.018184 0.1428773,-0.062347 0.062346,-0.044162 0.098715,-0.1194974 0.038966,-0.077933 0.038966,-0.2000283 0,-0.1065086 -0.033771,-0.17924612 Q 2.166046,0.90878152 2.108895,0.86461944 2.0517441,0.82045735 1.9712132,0.80227296 1.8906824,0.78408857 1.7971626,0.78408857 q -0.096118,0 -0.168855,0.007793 z"
           style="font-family:Aller;-inkscape-font-specification:Aller"
           id="path1968" />
        <path
           d="m 2.8362706,0.58665805 q 0.088324,-0.0103911 0.2130171,-0.0181844 0.124693,-0.0103911 0.2441904,-0.0103911 0.4909785,0 0.7325711,0.24938592 0.2441904,0.2493859 0.2441904,0.7169845 0,0.4883808 -0.2493859,0.7247778 -0.2467882,0.2363971 -0.7377667,0.2363971 -0.1220952,0 -0.2415926,-0.010391 Q 2.921997,2.4674435 2.8362706,2.4544547 Z M 3.1012431,2.236242 q 0.036369,0.0052 0.088324,0.010391 0.054553,0.0026 0.1143019,0.0026 0.1532684,0 0.2779614,-0.033771 0.1272907,-0.036369 0.2182126,-0.1194974 0.090922,-0.083129 0.1402796,-0.2234082 0.049358,-0.1428774 0.049358,-0.3558945 0,-0.1948327 -0.049358,-0.3325146 Q 3.8909652,1.0464633 3.8000432,0.96073692 3.7117191,0.87241275 3.5870261,0.8334462 3.4623331,0.79447965 3.3116625,0.79447965 q -0.049358,0 -0.1091064,0.002598 -0.057151,0 -0.101313,0.007793 z"
           style="font-family:Aller;-inkscape-font-specification:Aller"
           id="path1970" />
        <path
           d="M 4.6495124,0.58665805 H 5.626274 q 0.0052,0.0259777 0.00779,0.0571509 0.0026,0.0285755 0.0026,0.0571509 0,0.0285755 -0.0026,0.0597487 -0.0026,0.0311732 -0.00779,0.0571509 H 4.914485 V 1.365989 h 0.5948893 q 0.0052,0.028576 0.00779,0.059749 0.0026,0.028575 0.0026,0.057151 0,0.028576 -0.0026,0.059749 -0.0026,0.028575 -0.00779,0.057151 H 4.914485 v 0.8546664 q -0.031173,0.0052 -0.064944,0.00779 -0.031173,0.0026 -0.067542,0.0026 -0.033771,0 -0.07014,-0.0026 -0.033771,-0.0026 -0.062347,-0.00779 z"
           style="font-family:Aller;-inkscape-font-specification:Aller"
           id="path1972" />
      </g>
    </g>
  </g>
</svg>
